<?xml version="1.0" encoding="utf-8"?>
<svg viewBox="20.045 18.632 84.208 43.9" xmlns="http://www.w3.org/2000/svg">
  <rect y="32.032" class="st0" width="42.9" height="17.253" style="opacity: 1; fill: rgb(0, 130, 200);" x="20.045"/>
  <path class="st0" d="M 98.47 39.02 C 97.564 42.762 96.055 46.2 94.345 49.032 L 99.878 49.032 C 100.985 47.009 101.79 44.885 102.494 42.762 C 103.6 39.323 104.204 35.581 104.204 31.94 L 99.375 31.94 C 99.375 34.266 98.973 36.693 98.47 39.02 Z" style="fill: rgb(0, 130, 200);"/>
  <path class="st1" d="M 94.371 48.949 C 92.042 52.671 89.205 55.489 86.572 57.2 C 86.572 57.2 86.572 57.2 86.572 57.2 C 86.572 57.2 86.572 57.2 86.572 57.2 C 83.938 55.589 81.102 52.671 78.772 48.949 L 73.201 48.949 C 76.139 54.382 80.494 59.211 86.572 62.532 C 92.65 59.211 97.005 54.382 99.943 48.949 L 94.371 48.949 Z" style="fill: rgb(0, 130, 200);"/>
  <path class="st0" d="M 74.682 39.049 C 74.187 36.73 73.79 34.31 73.79 31.991 L 69.034 31.991 C 69.133 35.621 69.629 39.352 70.719 42.78 C 71.412 44.898 72.304 47.015 73.295 49.032 L 78.745 49.032 C 77.06 46.209 75.574 42.78 74.682 39.049 Z" style="fill: rgb(0, 130, 200);"/>
  <path class="st2" d="M 74.645 25.332 C 76.745 25.832 78.645 26.332 80.645 26.632 C 82.645 26.932 84.545 27.132 86.545 27.132 C 88.445 27.132 90.445 26.932 92.445 26.632 C 94.445 26.332 96.345 25.932 98.445 25.332 C 99.145 27.332 99.445 29.732 99.445 32.032 L 104.245 32.032 C 104.345 27.032 103.445 22.132 101.645 18.632 C 96.945 21.032 92.145 22.232 86.645 22.232 C 81.145 22.232 76.445 21.032 71.645 18.632 C 69.845 22.232 68.945 27.032 69.045 32.032 L 73.845 32.032 C 73.645 29.732 73.945 27.332 74.645 25.332 Z" style="fill: rgb(0, 130, 200);"/>
  <path class="st3" d="M 86.545 58.832 C 93.345 54.632 96.945 48.632 99.245 41.832 C 101.345 35.832 101.845 28.732 99.545 23.232 C 96.145 24.432 94.145 24.732 92.345 25.032 C 90.645 25.332 89.045 25.432 86.545 25.532 C 84.045 25.532 82.445 25.332 80.745 25.032 C 78.945 24.732 76.945 24.432 73.545 23.232 C 71.245 28.732 71.745 35.832 73.845 41.832 C 76.145 48.632 79.745 54.632 86.545 58.832 Z" style="fill: rgb(255, 255, 255);"/>
  <path class="st2" d="M 98.502 25.332 C 96.389 25.831 94.477 26.33 92.464 26.629 C 90.451 26.928 88.539 27.128 86.527 27.128 C 84.615 27.128 82.602 26.928 80.589 26.629 C 78.577 26.33 76.665 25.931 74.551 25.332 C 73.847 27.328 73.545 29.722 73.545 32.017 L 99.307 32.017 C 99.508 29.722 99.307 27.328 98.502 25.332 Z" style="fill: rgb(0, 130, 200);"/>
  <path class="st1" d="M 86.463 57.132 C 89.124 55.51 91.99 52.571 94.344 48.823 L 78.583 48.823 C 80.936 52.672 83.802 55.51 86.463 57.132 Z" style="fill: rgb(0, 130, 200);"/>
  <path class="st0" d="M 99.345 31.947 L 73.508 31.947 C 73.508 34.359 73.912 36.771 74.416 38.982 C 75.325 42.701 76.839 46.118 78.655 48.932 L 94.299 48.932 C 96.115 46.118 97.528 42.701 98.437 38.982 C 98.941 36.771 99.345 34.359 99.345 31.947 Z" style="fill: rgb(0, 130, 200);"/>
  <g transform="matrix(1, 0, 0, 1, 20.045313, 18.63216)">
    <path class="st3" d="M61.8,11.5c-1.6,0.8-2.1,2.7-1.4,4.2c0.6,1.3,1.8,2.2,3.2,2.6c0.7,0.2,1.4,0.3,2.1,0.3c0.9,0,1.7,0.1,2.5,0.3 c0.2,0,0.4,0.2,0.5,0.3c0.2,0.4,0,0.9-0.4,1c0,0.7-0.1,2.2-0.1,2.2s3.6-0.3,3-3.6c-0.1-0.8-0.8-1.6-1.5-1.9 c-1.8-0.9-3.8-0.5-5.6-1.1c-0.6-0.2-1.5-0.5-1.7-1.2c-0.1-0.3,0-0.8,0.3-0.9c0.5-0.2,1,0.2,1.7,0.4c0.4,0.1,0.8,0.1,1.2,0 c0.1,0,0.4-0.1,0.4-0.2c0-0.1-0.2-0.1-0.3-0.2c-0.2-0.1-0.4-0.2-0.6-0.2c-0.4-0.1-0.7-0.3-1.1-0.5c0.4-0.1,1-0.1,1.3-0.1 c0.3,0,1.2,0,1.4,0c0.1,0,0.2-0.1,0.1-0.2c-0.1-0.2-0.3-0.2-0.4-0.4c-0.3-0.3-0.5-0.7-0.9-0.9C64.3,11,63,10.9,61.8,11.5z" style="fill: rgb(255, 255, 255);"/>
    <path class="st3" d="M67.8,23.1l0-3.8c0,0-0.5-0.1-1.2-0.1c-0.9-0.1-1.3,0-1.3,0l0,0.3c0,0-0.4,0.2-0.5,0.3c0,0.1-0.1,0.2-0.1,0.3 c0.3,0.9,0.8,1.8,1,2.8C66.4,23,67,22.9,67.8,23.1z" style="fill: rgb(255, 255, 255);"/>
    <path class="st3" d="M63.3,22.5c-0.2,1.5,0.8,2.3,1.9,2.5c0.8,0.2,1.7,0.2,2.5,0.3c0.1,0,0.3,0,0.5,0.1c0.2,0.1,0.2,0.2,0.3,0.3 c0,0.1,0,0.2-0.1,0.4c-0.1,0.1-0.3,0.2-0.3,0.2L68,28c0,0,0.7,0,1.3-0.4c0.5-0.3,0.9-0.8,1-1.3c0.1-0.6,0-1.2-0.4-1.8 c-0.3-0.4-0.8-0.7-1.3-0.9c-1.1-0.4-2.2-0.3-3.3-0.5c-0.2,0-0.3-0.2-0.3-0.3c0-0.3,0.2-0.4,0.2-0.4s-0.1-0.4-0.3-0.8 c-0.1-0.3-0.3-0.7-0.4-1C63.9,21,63.4,21.7,63.3,22.5z" style="fill: rgb(255, 255, 255);"/>
    <path class="st3" d="M67.7,25.8l0,3.2l-0.8-0.4l-0.8-0.3l0-2.7C66.8,25.7,67.1,25.7,67.7,25.8z" style="fill: rgb(255, 255, 255);"/>
    <path class="st3" d="M64.1,27.5c-0.4,1,0.1,2,1,2.5c0.5,0.2,1.1,0.4,1.5,0.6c0.5,0.2,1.3,0.7,1.4,1c0,0.2-0.1,0.3-0.1,0.3l0,1.3 c0,0,0.5-0.1,0.9-0.4c0.4-0.3,0.6-0.7,0.6-1.3c0-0.7-0.3-1.2-1.3-1.8c-0.8-0.4-1.7-0.8-2.4-1.1c-0.1,0-0.2-0.2-0.2-0.4 c0-0.1,0.1-0.2,0.1-0.2l0-1.4c0,0-0.5,0.1-0.8,0.3C64.7,26.9,64.3,27.2,64.1,27.5z" style="fill: rgb(255, 255, 255);"/>
    <path class="st3" d="M67.6,31.8c0-0.1,0-0.1-0.1-0.2c-0.2-0.2-0.5-0.4-0.6-0.4c-0.2-0.1-0.7-0.3-0.7-0.3s0,3.3,0.1,5 c0,0.4,0.2,0.5,0.6,0.5c0.5,0,0.6-0.3,0.6-0.4C67.5,35.4,67.6,33,67.6,31.8z" style="fill: rgb(255, 255, 255);"/>
    <path class="st3" d="M67.9,10.7c0.2,0.1,0.2,0.1,0.2,0.4c0.1,0.5,0,1.3,0.1,1.7c0.1,0.1,0.2,0.1,0.3,0.1c0.7-0.4,1.2-1.1,1.9-1.4 c0.3-0.1,1.3,0.3,1.1,1.1c-0.1,0.3-0.3,0.4-0.5,0.6c-0.4,0.4-1,0.9-1.6,1.4c-0.4,0.4-0.8,0.7-1.1,1.1c-0.1,0.1-0.2,0.3-0.2,0.3 c-1-0.2-2-0.2-2.8-0.3l0-1.2c0,0,0.8-0.1,1-0.5c0,0,0-0.2-0.1-0.3c-0.1-0.1-0.4-0.2-0.5-0.2c0.8,0.1,1.3,0.3,2.1,0.6 c0.1-0.1,0-0.3,0-0.3c-0.1-0.1-0.2-0.2-0.4-0.2c-0.5-0.1-1.8-0.3-1.8-0.3s0.6,0,1.1-0.1c0.2,0,0.4-0.1,0.5-0.2 c0.1-0.1,0-0.3-0.2-0.5c-0.1-0.1-0.2-0.3-0.3-0.4c-0.1-0.2-0.3-0.5-0.5-0.6c-0.2-0.2-0.6-0.4-0.6-0.4s-0.1-0.6,0-0.9 c0.1-0.2,0.3-0.3,0.5-0.2C66.6,10.3,67.2,10.6,67.9,10.7z" style="fill: rgb(255, 255, 255);"/>
    <g>
      <path class="st3" d="M65.4,33c-0.2,0.2-0.5,0.6-0.6,1.3c-0.1,0.6,0.1,0.8,0.2,1.1c0.1,0.3,0.4,0.2,0.5,0c0.1-0.2,0-0.4,0-0.8 c0.1-0.3,0.3-0.5,0.3-0.5l0-1.5C65.9,32.6,65.7,32.7,65.4,33z" style="fill: rgb(255, 255, 255);"/>
    </g>
  </g>
  <g transform="matrix(1, 0, 0, 1, 20.045313, 18.63216)">
    <path class="st2" d="M65.4,12c-0.1,0.1-0.3,0.2-0.4,0.2c-0.3,0.1-0.3-0.2-0.5-0.4c-0.1-0.1-0.3,0-0.4-0.2c0.5,0,1.1,0,1.5,0.3 C65.5,11.9,65.4,11.9,65.4,12z" style="fill: rgb(255, 255, 255);"/>
  </g>
  <polygon class="st4" points="86.545 57.232 86.545 57.132 86.545 57.232" style="fill: rgb(255, 255, 255);"/>
  <path class="st4" d="M 41.545 43.732 C 41.445 43.732 41.445 43.732 41.345 43.832 L 41.645 43.832 C 41.645 43.732 41.545 43.732 41.545 43.732 Z" style="opacity: 1; fill: rgb(0, 130, 200);"/>
  <path class="st1" d="M 45.045 49.032 L 45.645 49.932 C 44.345 50.532 42.945 50.832 41.545 50.832 C 40.045 50.832 38.645 50.532 37.445 49.932 L 38.045 49.032 L 20.045 49.032 L 20.045 50.132 L 31.945 50.132 L 31.945 62.032 L 50.945 62.032 L 50.945 50.132 L 62.845 50.132 L 62.845 49.032 L 45.045 49.032 Z" style="opacity: 1; fill: rgb(0, 130, 200);"/>
  <path class="st2" d="M 62.945 31.076 L 51.045 31.076 L 51.045 19.132 L 32.045 19.132 L 32.045 31.076 L 20.045 31.076 L 20.045 32.079 L 36.045 32.079 C 36.845 31.578 37.745 31.176 38.745 30.875 C 38.545 31.276 38.445 31.678 38.445 32.079 L 44.645 32.079 C 44.645 31.678 44.645 31.276 44.345 30.875 C 45.345 31.176 46.145 31.578 47.045 32.079 L 62.945 32.079 L 62.945 31.076 Z" style="opacity: 1; fill: rgb(0, 130, 200);"/>
  <path class="st3" d="M 41.545 30.332 C 42.945 30.332 43.345 31.932 42.745 32.732 C 42.145 33.432 42.045 33.632 42.045 34.332 C 42.045 34.932 42.545 35.632 43.745 35.632 L 52.145 35.632 C 50.245 31.632 46.145 28.832 41.445 28.832 C 36.745 28.832 32.645 31.632 30.745 35.632 L 39.145 35.632 C 40.345 35.632 40.845 34.932 40.945 34.332 C 40.945 33.632 40.845 33.432 40.345 32.732 C 39.745 31.932 40.145 30.332 41.545 30.332 Z" style="opacity: 1; fill: rgb(255, 255, 255);"/>
  <path class="st0" d="M 43.945 33.732 C 43.845 33.832 43.845 33.932 43.945 33.932 L 49.245 33.932 C 48.645 33.132 47.845 32.532 47.045 31.932 L 44.645 31.932 C 44.545 32.732 44.245 33.432 43.945 33.732 Z" style="opacity: 1; fill: rgb(0, 130, 200);"/>
  <path class="st0" d="M 33.845 34.032 L 39.145 34.032 C 39.245 34.032 39.245 33.932 39.145 33.832 C 38.745 33.432 38.445 32.832 38.445 32.132 L 36.045 32.132 C 35.245 32.632 34.445 33.232 33.845 34.032 Z" style="opacity: 1; fill: rgb(0, 130, 200);"/>
  <path class="st2" d="M 38.745 30.832 C 37.813 31.173 36.882 31.629 35.95 32.198 L 38.434 32.198 C 38.434 31.743 38.434 31.287 38.745 30.832 Z" style="opacity: 1; fill: rgb(0, 130, 200);"/>
  <path class="st2" d="M 44.641 32.039 L 47.222 32.039 C 46.361 31.536 45.393 31.134 44.318 30.832 C 44.533 31.234 44.641 31.636 44.641 32.039 Z" style="opacity: 1; fill: rgb(0, 130, 200);"/>
  <path class="st3" d="M 41.545 52.432 C 43.945 52.432 46.145 51.732 48.045 50.532 L 42.245 41.932 C 41.845 41.332 41.245 41.332 40.745 41.932 L 35.045 50.532 C 36.945 51.732 39.145 52.432 41.545 52.432" style="opacity: 1; fill: rgb(255, 255, 255);"/>
  <path class="st1" d="M 41.545 50.832 C 43.045 50.832 44.445 50.532 45.645 49.932 L 45.045 49.032 L 37.945 49.032 L 37.345 49.932 C 38.645 50.432 40.045 50.832 41.545 50.832 Z" style="opacity: 1; fill: rgb(0, 130, 200);"/>
  <polygon class="st0" points="41.745 43.832 41.345 43.832 37.945 49.032 45.045 49.032" style="opacity: 1; fill: rgb(0, 130, 200);"/>
  <path class="st3" d="M 30.445 36.432 L 38.345 37.232 C 39.845 37.432 40.045 38.832 39.645 39.732 L 34.245 49.932 C 31.445 47.732 29.745 44.432 29.745 40.632 C 29.745 39.132 30.045 37.732 30.445 36.432 Z" style="opacity: 1; fill: rgb(255, 255, 255);"/>
  <path class="st0" d="M 37.645 38.732 L 31.645 38.132 C 31.445 38.932 31.345 39.732 31.345 40.532 C 31.345 43.032 32.245 45.332 33.845 47.132 L 38.045 39.132 C 38.145 38.932 38.045 38.832 37.645 38.732 Z" style="opacity: 1; fill: rgb(0, 130, 200);"/>
  <path class="st3" d="M 52.545 36.432 L 44.645 37.232 C 43.145 37.432 42.945 38.832 43.345 39.732 L 48.745 49.932 C 51.445 47.732 53.245 44.432 53.245 40.632 C 53.345 39.132 53.045 37.732 52.545 36.432 Z" style="opacity: 1; fill: rgb(255, 255, 255);"/>
  <path class="st0" d="M 45.445 38.732 C 45.045 38.732 44.945 38.932 45.045 39.232 L 49.245 47.232 C 50.745 45.432 51.745 43.132 51.745 40.632 C 51.745 39.832 51.645 39.032 51.445 38.232 L 45.445 38.732 Z" style="opacity: 1; fill: rgb(0, 130, 200);"/>
</svg>