<?xml version="1.0" encoding="utf-8"?>
<svg viewBox="20.045 18.632 263.9 43.9" xmlns="http://www.w3.org/2000/svg">
  <rect y="32.032" class="st0" width="42.9" height="17.253" style="opacity: 1; fill: rgb(0, 130, 200);" x="20.045"/>
  <path class="st0" d="M 98.47 39.02 C 97.564 42.762 96.055 46.2 94.345 49.032 L 99.878 49.032 C 100.985 47.009 101.79 44.885 102.494 42.762 C 103.6 39.323 104.204 35.581 104.204 31.94 L 99.375 31.94 C 99.375 34.266 98.973 36.693 98.47 39.02 Z" style="fill: rgb(0, 130, 200);"/>
  <path class="st1" d="M 94.371 48.949 C 92.042 52.671 89.205 55.489 86.572 57.2 C 86.572 57.2 86.572 57.2 86.572 57.2 C 86.572 57.2 86.572 57.2 86.572 57.2 C 83.938 55.589 81.102 52.671 78.772 48.949 L 73.201 48.949 C 76.139 54.382 80.494 59.211 86.572 62.532 C 92.65 59.211 97.005 54.382 99.943 48.949 L 94.371 48.949 Z" style="fill: rgb(0, 130, 200);"/>
  <path class="st0" d="M 74.682 39.049 C 74.187 36.73 73.79 34.31 73.79 31.991 L 69.034 31.991 C 69.133 35.621 69.629 39.352 70.719 42.78 C 71.412 44.898 72.304 47.015 73.295 49.032 L 78.745 49.032 C 77.06 46.209 75.574 42.78 74.682 39.049 Z" style="fill: rgb(0, 130, 200);"/>
  <path class="st2" d="M 74.645 25.332 C 76.745 25.832 78.645 26.332 80.645 26.632 C 82.645 26.932 84.545 27.132 86.545 27.132 C 88.445 27.132 90.445 26.932 92.445 26.632 C 94.445 26.332 96.345 25.932 98.445 25.332 C 99.145 27.332 99.445 29.732 99.445 32.032 L 104.245 32.032 C 104.345 27.032 103.445 22.132 101.645 18.632 C 96.945 21.032 92.145 22.232 86.645 22.232 C 81.145 22.232 76.445 21.032 71.645 18.632 C 69.845 22.232 68.945 27.032 69.045 32.032 L 73.845 32.032 C 73.645 29.732 73.945 27.332 74.645 25.332 Z" style="fill: rgb(0, 130, 200);"/>
  <path class="st3" d="M 86.545 58.832 C 93.345 54.632 96.945 48.632 99.245 41.832 C 101.345 35.832 101.845 28.732 99.545 23.232 C 96.145 24.432 94.145 24.732 92.345 25.032 C 90.645 25.332 89.045 25.432 86.545 25.532 C 84.045 25.532 82.445 25.332 80.745 25.032 C 78.945 24.732 76.945 24.432 73.545 23.232 C 71.245 28.732 71.745 35.832 73.845 41.832 C 76.145 48.632 79.745 54.632 86.545 58.832 Z" style="fill: rgb(255, 255, 255);"/>
  <path class="st2" d="M 98.502 25.332 C 96.389 25.831 94.477 26.33 92.464 26.629 C 90.451 26.928 88.539 27.128 86.527 27.128 C 84.615 27.128 82.602 26.928 80.589 26.629 C 78.577 26.33 76.665 25.931 74.551 25.332 C 73.847 27.328 73.545 29.722 73.545 32.017 L 99.307 32.017 C 99.508 29.722 99.307 27.328 98.502 25.332 Z" style="fill: rgb(0, 130, 200);"/>
  <path class="st1" d="M 86.463 57.132 C 89.124 55.51 91.99 52.571 94.344 48.823 L 78.583 48.823 C 80.936 52.672 83.802 55.51 86.463 57.132 Z" style="fill: rgb(0, 130, 200);"/>
  <path class="st0" d="M 99.345 31.947 L 73.508 31.947 C 73.508 34.359 73.912 36.771 74.416 38.982 C 75.325 42.701 76.839 46.118 78.655 48.932 L 94.299 48.932 C 96.115 46.118 97.528 42.701 98.437 38.982 C 98.941 36.771 99.345 34.359 99.345 31.947 Z" style="fill: rgb(0, 130, 200);"/>
  <g transform="matrix(1, 0, 0, 1, 20.045313, 18.63216)">
    <path class="st3" d="M61.8,11.5c-1.6,0.8-2.1,2.7-1.4,4.2c0.6,1.3,1.8,2.2,3.2,2.6c0.7,0.2,1.4,0.3,2.1,0.3c0.9,0,1.7,0.1,2.5,0.3 c0.2,0,0.4,0.2,0.5,0.3c0.2,0.4,0,0.9-0.4,1c0,0.7-0.1,2.2-0.1,2.2s3.6-0.3,3-3.6c-0.1-0.8-0.8-1.6-1.5-1.9 c-1.8-0.9-3.8-0.5-5.6-1.1c-0.6-0.2-1.5-0.5-1.7-1.2c-0.1-0.3,0-0.8,0.3-0.9c0.5-0.2,1,0.2,1.7,0.4c0.4,0.1,0.8,0.1,1.2,0 c0.1,0,0.4-0.1,0.4-0.2c0-0.1-0.2-0.1-0.3-0.2c-0.2-0.1-0.4-0.2-0.6-0.2c-0.4-0.1-0.7-0.3-1.1-0.5c0.4-0.1,1-0.1,1.3-0.1 c0.3,0,1.2,0,1.4,0c0.1,0,0.2-0.1,0.1-0.2c-0.1-0.2-0.3-0.2-0.4-0.4c-0.3-0.3-0.5-0.7-0.9-0.9C64.3,11,63,10.9,61.8,11.5z" style="fill: rgb(255, 255, 255);"/>
    <path class="st3" d="M67.8,23.1l0-3.8c0,0-0.5-0.1-1.2-0.1c-0.9-0.1-1.3,0-1.3,0l0,0.3c0,0-0.4,0.2-0.5,0.3c0,0.1-0.1,0.2-0.1,0.3 c0.3,0.9,0.8,1.8,1,2.8C66.4,23,67,22.9,67.8,23.1z" style="fill: rgb(255, 255, 255);"/>
    <path class="st3" d="M63.3,22.5c-0.2,1.5,0.8,2.3,1.9,2.5c0.8,0.2,1.7,0.2,2.5,0.3c0.1,0,0.3,0,0.5,0.1c0.2,0.1,0.2,0.2,0.3,0.3 c0,0.1,0,0.2-0.1,0.4c-0.1,0.1-0.3,0.2-0.3,0.2L68,28c0,0,0.7,0,1.3-0.4c0.5-0.3,0.9-0.8,1-1.3c0.1-0.6,0-1.2-0.4-1.8 c-0.3-0.4-0.8-0.7-1.3-0.9c-1.1-0.4-2.2-0.3-3.3-0.5c-0.2,0-0.3-0.2-0.3-0.3c0-0.3,0.2-0.4,0.2-0.4s-0.1-0.4-0.3-0.8 c-0.1-0.3-0.3-0.7-0.4-1C63.9,21,63.4,21.7,63.3,22.5z" style="fill: rgb(255, 255, 255);"/>
    <path class="st3" d="M67.7,25.8l0,3.2l-0.8-0.4l-0.8-0.3l0-2.7C66.8,25.7,67.1,25.7,67.7,25.8z" style="fill: rgb(255, 255, 255);"/>
    <path class="st3" d="M64.1,27.5c-0.4,1,0.1,2,1,2.5c0.5,0.2,1.1,0.4,1.5,0.6c0.5,0.2,1.3,0.7,1.4,1c0,0.2-0.1,0.3-0.1,0.3l0,1.3 c0,0,0.5-0.1,0.9-0.4c0.4-0.3,0.6-0.7,0.6-1.3c0-0.7-0.3-1.2-1.3-1.8c-0.8-0.4-1.7-0.8-2.4-1.1c-0.1,0-0.2-0.2-0.2-0.4 c0-0.1,0.1-0.2,0.1-0.2l0-1.4c0,0-0.5,0.1-0.8,0.3C64.7,26.9,64.3,27.2,64.1,27.5z" style="fill: rgb(255, 255, 255);"/>
    <path class="st3" d="M67.6,31.8c0-0.1,0-0.1-0.1-0.2c-0.2-0.2-0.5-0.4-0.6-0.4c-0.2-0.1-0.7-0.3-0.7-0.3s0,3.3,0.1,5 c0,0.4,0.2,0.5,0.6,0.5c0.5,0,0.6-0.3,0.6-0.4C67.5,35.4,67.6,33,67.6,31.8z" style="fill: rgb(255, 255, 255);"/>
    <path class="st3" d="M67.9,10.7c0.2,0.1,0.2,0.1,0.2,0.4c0.1,0.5,0,1.3,0.1,1.7c0.1,0.1,0.2,0.1,0.3,0.1c0.7-0.4,1.2-1.1,1.9-1.4 c0.3-0.1,1.3,0.3,1.1,1.1c-0.1,0.3-0.3,0.4-0.5,0.6c-0.4,0.4-1,0.9-1.6,1.4c-0.4,0.4-0.8,0.7-1.1,1.1c-0.1,0.1-0.2,0.3-0.2,0.3 c-1-0.2-2-0.2-2.8-0.3l0-1.2c0,0,0.8-0.1,1-0.5c0,0,0-0.2-0.1-0.3c-0.1-0.1-0.4-0.2-0.5-0.2c0.8,0.1,1.3,0.3,2.1,0.6 c0.1-0.1,0-0.3,0-0.3c-0.1-0.1-0.2-0.2-0.4-0.2c-0.5-0.1-1.8-0.3-1.8-0.3s0.6,0,1.1-0.1c0.2,0,0.4-0.1,0.5-0.2 c0.1-0.1,0-0.3-0.2-0.5c-0.1-0.1-0.2-0.3-0.3-0.4c-0.1-0.2-0.3-0.5-0.5-0.6c-0.2-0.2-0.6-0.4-0.6-0.4s-0.1-0.6,0-0.9 c0.1-0.2,0.3-0.3,0.5-0.2C66.6,10.3,67.2,10.6,67.9,10.7z" style="fill: rgb(255, 255, 255);"/>
    <g>
      <path class="st3" d="M65.4,33c-0.2,0.2-0.5,0.6-0.6,1.3c-0.1,0.6,0.1,0.8,0.2,1.1c0.1,0.3,0.4,0.2,0.5,0c0.1-0.2,0-0.4,0-0.8 c0.1-0.3,0.3-0.5,0.3-0.5l0-1.5C65.9,32.6,65.7,32.7,65.4,33z" style="fill: rgb(255, 255, 255);"/>
    </g>
  </g>
  <g transform="matrix(1, 0, 0, 1, 20.045313, 18.63216)">
    <path class="st2" d="M65.4,12c-0.1,0.1-0.3,0.2-0.4,0.2c-0.3,0.1-0.3-0.2-0.5-0.4c-0.1-0.1-0.3,0-0.4-0.2c0.5,0,1.1,0,1.5,0.3 C65.5,11.9,65.4,11.9,65.4,12z" style="fill: rgb(255, 255, 255);"/>
  </g>
  <polygon class="st4" points="86.545 57.232 86.545 57.132 86.545 57.232" style="fill: rgb(255, 255, 255);"/>
  <path class="st4" d="M 41.545 43.732 C 41.445 43.732 41.445 43.732 41.345 43.832 L 41.645 43.832 C 41.645 43.732 41.545 43.732 41.545 43.732 Z" style="opacity: 1; fill: rgb(0, 130, 200);"/>
  <path class="st1" d="M 45.045 49.032 L 45.645 49.932 C 44.345 50.532 42.945 50.832 41.545 50.832 C 40.045 50.832 38.645 50.532 37.445 49.932 L 38.045 49.032 L 20.045 49.032 L 20.045 50.132 L 31.945 50.132 L 31.945 62.032 L 50.945 62.032 L 50.945 50.132 L 62.845 50.132 L 62.845 49.032 L 45.045 49.032 Z" style="opacity: 1; fill: rgb(0, 130, 200);"/>
  <path class="st2" d="M 62.945 31.076 L 51.045 31.076 L 51.045 19.132 L 32.045 19.132 L 32.045 31.076 L 20.045 31.076 L 20.045 32.079 L 36.045 32.079 C 36.845 31.578 37.745 31.176 38.745 30.875 C 38.545 31.276 38.445 31.678 38.445 32.079 L 44.645 32.079 C 44.645 31.678 44.645 31.276 44.345 30.875 C 45.345 31.176 46.145 31.578 47.045 32.079 L 62.945 32.079 L 62.945 31.076 Z" style="opacity: 1; fill: rgb(0, 130, 200);"/>
  <path class="st3" d="M 41.545 30.332 C 42.945 30.332 43.345 31.932 42.745 32.732 C 42.145 33.432 42.045 33.632 42.045 34.332 C 42.045 34.932 42.545 35.632 43.745 35.632 L 52.145 35.632 C 50.245 31.632 46.145 28.832 41.445 28.832 C 36.745 28.832 32.645 31.632 30.745 35.632 L 39.145 35.632 C 40.345 35.632 40.845 34.932 40.945 34.332 C 40.945 33.632 40.845 33.432 40.345 32.732 C 39.745 31.932 40.145 30.332 41.545 30.332 Z" style="opacity: 1; fill: rgb(255, 255, 255);"/>
  <path class="st0" d="M 43.945 33.732 C 43.845 33.832 43.845 33.932 43.945 33.932 L 49.245 33.932 C 48.645 33.132 47.845 32.532 47.045 31.932 L 44.645 31.932 C 44.545 32.732 44.245 33.432 43.945 33.732 Z" style="opacity: 1; fill: rgb(0, 130, 200);"/>
  <path class="st0" d="M 33.845 34.032 L 39.145 34.032 C 39.245 34.032 39.245 33.932 39.145 33.832 C 38.745 33.432 38.445 32.832 38.445 32.132 L 36.045 32.132 C 35.245 32.632 34.445 33.232 33.845 34.032 Z" style="opacity: 1; fill: rgb(0, 130, 200);"/>
  <path class="st2" d="M 38.745 30.832 C 37.813 31.173 36.882 31.629 35.95 32.198 L 38.434 32.198 C 38.434 31.743 38.434 31.287 38.745 30.832 Z" style="opacity: 1; fill: rgb(0, 130, 200);"/>
  <path class="st2" d="M 44.641 32.039 L 47.222 32.039 C 46.361 31.536 45.393 31.134 44.318 30.832 C 44.533 31.234 44.641 31.636 44.641 32.039 Z" style="opacity: 1; fill: rgb(0, 130, 200);"/>
  <path class="st3" d="M 41.545 52.432 C 43.945 52.432 46.145 51.732 48.045 50.532 L 42.245 41.932 C 41.845 41.332 41.245 41.332 40.745 41.932 L 35.045 50.532 C 36.945 51.732 39.145 52.432 41.545 52.432" style="opacity: 1; fill: rgb(255, 255, 255);"/>
  <path class="st1" d="M 41.545 50.832 C 43.045 50.832 44.445 50.532 45.645 49.932 L 45.045 49.032 L 37.945 49.032 L 37.345 49.932 C 38.645 50.432 40.045 50.832 41.545 50.832 Z" style="opacity: 1; fill: rgb(0, 130, 200);"/>
  <polygon class="st0" points="41.745 43.832 41.345 43.832 37.945 49.032 45.045 49.032" style="opacity: 1; fill: rgb(0, 130, 200);"/>
  <path class="st0" d="M 116.645 30.932 L 118.245 30.932 L 118.245 20.032 L 116.645 20.032 L 116.645 19.532 L 122.945 19.532 C 125.045 19.532 126.645 19.932 126.645 21.932 C 126.645 23.832 125.145 24.632 123.445 24.732 C 125.445 24.832 127.345 25.732 127.345 28.032 C 127.345 29.932 126.045 31.332 123.245 31.332 L 116.645 31.332 L 116.645 30.932 Z M 120.845 24.732 L 121.945 24.732 C 123.445 24.732 124.045 24.132 124.045 22.432 C 124.045 20.832 123.545 20.132 121.845 20.132 L 120.845 20.132 L 120.845 24.732 Z M 120.845 30.932 L 121.745 30.932 C 123.645 30.932 124.545 30.232 124.545 27.932 C 124.545 26.032 123.945 25.232 122.045 25.232 L 120.845 25.232 L 120.845 30.932 Z" style="fill: rgb(35, 31, 32);"/>
  <path class="st0" d="M 127.945 30.932 L 129.145 30.932 L 129.145 20.032 L 127.945 20.032 L 127.945 19.532 L 128.945 19.532 C 129.745 19.532 130.645 19.532 131.545 19.432 L 131.545 30.932 L 132.745 30.932 L 132.745 31.432 L 127.945 31.432 L 127.945 30.932 Z" style="fill: rgb(35, 31, 32);"/>
  <path class="st0" d="M 142.045 30.932 L 143.245 30.932 L 143.245 31.432 C 141.645 31.432 140.645 31.432 139.645 31.532 L 139.645 30.232 C 139.045 31.132 138.045 31.632 137.045 31.632 C 135.345 31.632 134.145 31.032 134.145 28.932 L 134.145 23.832 L 132.945 23.832 L 132.945 23.332 L 133.945 23.332 C 134.745 23.332 135.645 23.332 136.545 23.232 L 136.545 29.432 C 136.545 30.732 137.145 30.832 137.845 30.832 C 138.945 30.832 139.645 29.932 139.645 28.132 L 139.645 23.832 L 138.445 23.832 L 138.445 23.332 L 139.445 23.332 C 140.245 23.332 141.145 23.332 142.045 23.232 L 142.045 30.932 Z" style="fill: rgb(35, 31, 32);"/>
  <path class="st0" d="M 146.345 26.932 L 146.345 27.632 C 146.345 29.132 146.645 30.932 148.545 30.932 C 149.945 30.932 150.845 30.132 151.345 28.932 L 151.745 29.132 C 151.045 30.832 149.745 31.632 148.045 31.632 C 145.445 31.632 143.745 29.932 143.745 27.332 C 143.745 24.832 145.545 23.032 148.045 23.032 C 150.245 23.032 151.945 24.432 151.945 26.932 L 146.345 26.932 Z M 149.345 26.432 L 149.345 25.732 C 149.345 24.832 149.145 23.632 147.945 23.632 C 146.445 23.632 146.345 25.432 146.345 26.532 L 149.345 26.532 L 149.345 26.432 Z" style="fill: rgb(35, 31, 32);"/>
  <path class="st0" d="M 163.645 23.732 L 163.145 23.732 C 163.045 21.632 161.345 19.932 159.445 19.932 C 156.145 19.932 155.845 23.232 155.845 25.532 C 155.845 27.632 156.045 31.232 159.345 31.232 C 161.345 31.232 163.045 29.432 163.245 27.432 L 163.745 27.432 L 163.745 30.832 C 162.545 31.332 160.745 31.832 159.245 31.832 C 155.445 31.832 153.045 29.232 153.045 25.632 C 153.045 22.032 155.445 19.532 159.245 19.532 C 160.745 19.532 162.145 19.932 163.645 20.532 L 163.645 23.732 Z" style="fill: rgb(35, 31, 32);"/>
  <path class="st0" d="M 164.445 30.932 L 165.645 30.932 L 165.645 23.832 L 164.445 23.832 L 164.445 23.332 L 165.445 23.332 C 166.245 23.332 167.145 23.332 168.045 23.232 L 168.045 24.532 C 168.345 23.732 169.245 23.132 170.145 23.132 C 171.145 23.132 171.745 23.832 171.745 24.832 C 171.745 25.532 171.445 25.932 170.645 25.932 C 170.045 25.932 169.645 25.632 169.645 25.032 C 169.645 24.532 169.645 24.532 169.645 24.232 C 169.645 24.032 169.545 23.932 169.345 23.932 C 168.345 23.932 168.045 26.132 168.045 27.432 L 168.045 30.932 L 169.245 30.932 L 169.245 31.432 L 164.445 31.432 L 164.445 30.932 Z" style="fill: rgb(35, 31, 32);"/>
  <path class="st0" d="M 176.245 31.632 C 173.645 31.632 171.945 29.932 171.945 27.332 C 171.945 24.832 173.745 23.032 176.245 23.032 C 178.745 23.032 180.545 24.832 180.545 27.332 C 180.545 29.832 178.745 31.632 176.245 31.632 Z M 176.245 23.632 C 174.545 23.632 174.545 25.432 174.545 27.432 C 174.545 29.332 174.545 31.232 176.245 31.232 C 177.945 31.232 177.945 29.432 177.945 27.432 C 177.945 25.432 177.945 23.632 176.245 23.632 Z" style="fill: rgb(35, 31, 32);"/>
  <path class="st0" d="M 181.445 28.332 L 181.945 28.332 C 182.045 29.832 182.945 31.132 184.445 31.132 C 185.245 31.132 186.145 30.832 186.145 29.932 C 186.145 28.032 181.545 28.832 181.545 25.632 C 181.545 23.932 182.845 23.032 184.445 23.032 C 185.645 23.032 186.345 23.332 187.045 23.532 L 187.045 25.632 L 186.545 25.632 C 186.445 24.432 185.545 23.432 184.345 23.432 C 183.645 23.432 183.145 23.732 183.145 24.432 C 183.145 26.132 187.745 25.332 187.745 28.632 C 187.745 30.432 186.045 31.432 184.445 31.432 C 183.145 31.432 182.145 31.032 181.545 30.832 L 181.545 28.332 L 181.445 28.332 Z" style="fill: rgb(35, 31, 32);"/>
  <path class="st0" d="M 188.545 28.332 L 189.045 28.332 C 189.145 29.832 190.045 31.132 191.545 31.132 C 192.345 31.132 193.245 30.832 193.245 29.932 C 193.245 28.032 188.645 28.832 188.645 25.632 C 188.645 23.932 189.945 23.032 191.545 23.032 C 192.745 23.032 193.445 23.332 194.145 23.532 L 194.145 25.632 L 193.645 25.632 C 193.545 24.432 192.645 23.432 191.445 23.432 C 190.745 23.432 190.245 23.732 190.245 24.432 C 190.245 26.132 194.845 25.332 194.845 28.632 C 194.845 30.432 193.145 31.432 191.545 31.432 C 190.245 31.432 189.245 31.032 188.645 30.832 L 188.645 28.332 L 188.545 28.332 Z" style="fill: rgb(35, 31, 32);"/>
  <path class="st0" d="M 199.545 30.932 L 201.145 30.932 L 201.145 20.032 L 199.545 20.032 L 199.545 19.532 L 205.845 19.532 C 207.945 19.532 209.545 19.932 209.545 21.932 C 209.545 23.832 208.045 24.632 206.345 24.732 C 208.345 24.832 210.245 25.732 210.245 28.032 C 210.245 29.932 208.945 31.332 206.145 31.332 L 199.545 31.332 L 199.545 30.932 Z M 203.745 24.732 L 204.845 24.732 C 206.345 24.732 206.945 24.132 206.945 22.432 C 206.945 20.832 206.445 20.132 204.745 20.132 L 203.745 20.132 L 203.745 24.732 Z M 203.745 30.932 L 204.645 30.932 C 206.545 30.932 207.445 30.232 207.445 27.932 C 207.445 26.032 206.845 25.232 204.945 25.232 L 203.745 25.232 L 203.745 30.932 Z" style="fill: rgb(35, 31, 32);"/>
  <path class="st0" d="M 210.845 30.932 L 212.045 30.932 L 212.045 20.032 L 210.845 20.032 L 210.845 19.532 L 211.845 19.532 C 212.645 19.532 213.545 19.532 214.445 19.432 L 214.445 30.932 L 215.645 30.932 L 215.645 31.432 L 210.845 31.432 L 210.845 30.932 Z" style="fill: rgb(35, 31, 32);"/>
  <path class="st0" d="M 224.945 30.932 L 226.145 30.932 L 226.145 31.432 C 224.545 31.432 223.545 31.432 222.545 31.532 L 222.545 30.232 C 221.945 31.132 220.945 31.632 219.945 31.632 C 218.245 31.632 217.045 31.032 217.045 28.932 L 217.045 23.832 L 215.845 23.832 L 215.845 23.332 L 216.845 23.332 C 217.645 23.332 218.545 23.332 219.445 23.232 L 219.445 29.432 C 219.445 30.732 220.045 30.832 220.745 30.832 C 221.845 30.832 222.545 29.932 222.545 28.132 L 222.545 23.832 L 221.345 23.832 L 221.345 23.332 L 222.345 23.332 C 223.145 23.332 224.045 23.332 224.945 23.232 L 224.945 30.932 Z" style="fill: rgb(35, 31, 32);"/>
  <path class="st0" d="M 229.245 26.932 L 229.245 27.632 C 229.245 29.132 229.545 30.932 231.445 30.932 C 232.845 30.932 233.745 30.132 234.245 28.932 L 234.645 29.132 C 233.945 30.832 232.645 31.632 230.945 31.632 C 228.345 31.632 226.645 29.932 226.645 27.332 C 226.645 24.832 228.445 23.032 230.945 23.032 C 233.145 23.032 234.845 24.432 234.845 26.932 L 229.245 26.932 Z M 232.245 26.432 L 232.245 25.732 C 232.245 24.832 232.045 23.632 230.845 23.632 C 229.345 23.632 229.245 25.432 229.245 26.532 L 232.245 26.532 L 232.245 26.432 Z" style="fill: rgb(35, 31, 32);"/>
  <path class="st0" d="M 235.645 27.432 L 236.245 27.432 C 236.345 29.132 237.645 31.032 239.845 31.032 C 241.145 31.032 242.445 30.532 242.445 29.032 C 242.445 26.132 235.845 27.032 235.845 22.832 C 235.845 20.332 237.945 19.232 239.745 19.232 C 240.745 19.232 241.545 19.432 243.145 19.932 L 243.245 22.732 L 242.645 22.732 C 242.345 21.132 241.145 19.732 239.445 19.732 C 238.345 19.732 237.545 20.432 237.545 21.532 C 237.545 24.132 243.945 23.132 243.945 27.832 C 243.945 29.932 242.045 31.432 239.645 31.432 C 238.345 31.432 237.045 31.232 235.745 30.632 L 235.645 27.432 Z" style="fill: rgb(35, 31, 32);"/>
  <path class="st0" d="M 244.545 30.932 L 245.745 30.932 L 245.745 20.032 L 244.545 20.032 L 244.545 19.532 L 245.545 19.532 C 246.345 19.532 247.245 19.532 248.145 19.432 L 248.145 24.432 C 248.745 23.532 249.645 23.132 250.745 23.132 C 252.445 23.132 253.645 24.032 253.645 25.832 L 253.645 30.932 L 254.845 30.932 L 254.845 31.432 L 250.045 31.432 L 250.045 30.932 L 251.245 30.932 L 251.245 25.532 C 251.245 24.232 250.645 23.932 249.945 23.932 C 249.045 23.932 248.145 24.832 248.145 26.232 L 248.145 31.032 L 249.345 31.032 L 249.345 31.532 L 244.545 31.532 L 244.545 30.932 Z" style="fill: rgb(35, 31, 32);"/>
  <path class="st0" d="M 255.045 30.932 L 256.245 30.932 L 256.245 23.832 L 255.045 23.832 L 255.045 23.332 L 256.045 23.332 C 256.845 23.332 257.745 23.332 258.645 23.232 L 258.645 31.032 L 259.845 31.032 L 259.845 31.532 L 255.045 31.532 L 255.045 30.932 Z M 257.445 19.332 C 258.145 19.332 258.745 19.932 258.745 20.632 C 258.745 21.332 258.145 21.932 257.445 21.932 C 256.745 21.932 256.145 21.332 256.145 20.632 C 256.145 19.932 256.745 19.332 257.445 19.332 Z" style="fill: rgb(35, 31, 32);"/>
  <path class="st0" d="M 263.045 26.932 L 263.045 27.632 C 263.045 29.132 263.345 30.932 265.245 30.932 C 266.645 30.932 267.545 30.132 268.045 28.932 L 268.445 29.132 C 267.745 30.832 266.445 31.632 264.745 31.632 C 262.145 31.632 260.445 29.932 260.445 27.332 C 260.445 24.832 262.245 23.032 264.745 23.032 C 266.945 23.032 268.645 24.432 268.645 26.932 L 263.045 26.932 Z M 266.045 26.432 L 266.045 25.732 C 266.045 24.832 265.845 23.632 264.645 23.632 C 263.145 23.632 263.045 25.432 263.045 26.532 L 266.045 26.532 L 266.045 26.432 Z" style="fill: rgb(35, 31, 32);"/>
  <path class="st0" d="M 269.045 30.932 L 270.245 30.932 L 270.245 20.032 L 269.045 20.032 L 269.045 19.532 L 270.045 19.532 C 270.845 19.532 271.745 19.532 272.645 19.432 L 272.645 30.932 L 273.845 30.932 L 273.845 31.432 L 269.045 31.432 L 269.045 30.932 Z" style="fill: rgb(35, 31, 32);"/>
  <path class="st0" d="M 280.445 30.532 C 279.845 31.532 278.845 31.732 277.945 31.732 C 275.445 31.732 274.345 29.732 274.345 27.432 C 274.345 25.232 275.645 23.132 278.045 23.132 C 279.045 23.132 279.945 23.532 280.345 24.332 L 280.345 20.032 L 279.145 20.032 L 279.145 19.532 L 280.145 19.532 C 280.945 19.532 281.845 19.532 282.745 19.432 L 282.745 30.932 L 283.945 30.932 L 283.945 31.432 C 282.345 31.432 281.345 31.432 280.345 31.532 L 280.345 30.532 L 280.445 30.532 Z M 278.645 23.832 C 277.045 23.832 276.945 25.432 276.945 27.432 C 276.945 29.832 277.345 31.032 278.645 31.032 C 280.345 31.032 280.545 29.032 280.545 27.432 C 280.545 26.032 280.345 23.832 278.645 23.832 Z" style="fill: rgb(35, 31, 32);"/>
  <path class="st0" d="M 121.245 51.632 C 118.645 51.632 116.945 49.932 116.945 47.332 C 116.945 44.832 118.745 43.032 121.245 43.032 C 123.745 43.032 125.545 44.832 125.545 47.332 C 125.545 49.832 123.745 51.632 121.245 51.632 Z M 121.245 43.532 C 119.545 43.532 119.545 45.332 119.545 47.332 C 119.545 49.232 119.545 51.132 121.245 51.132 C 122.945 51.132 122.945 49.332 122.945 47.332 C 122.945 45.432 122.945 43.532 121.245 43.532 Z" style="fill: rgb(35, 31, 32);"/>
  <path class="st0" d="M 125.945 50.932 L 127.145 50.932 L 127.145 43.732 L 125.945 43.732 L 125.945 43.232 L 127.145 43.232 L 127.145 42.232 C 127.145 40.432 128.045 39.332 130.445 39.332 C 131.245 39.332 133.145 39.632 133.145 41.132 C 133.145 41.932 132.745 42.332 132.145 42.332 C 131.345 42.332 131.045 41.832 131.045 41.232 C 131.045 40.532 131.045 39.832 130.345 39.832 C 129.645 39.832 129.545 40.432 129.545 41.032 L 129.545 43.232 L 130.945 43.232 L 130.945 43.732 L 129.545 43.732 L 129.545 50.932 L 130.945 50.932 L 130.945 51.432 L 125.945 51.432 L 125.945 50.932 Z" style="fill: rgb(35, 31, 32);"/>
  <path class="st0" d="M 138.845 50.932 L 140.445 50.932 L 140.445 40.032 L 139.845 40.032 C 137.445 40.032 136.445 41.832 136.445 43.532 L 135.945 43.532 L 135.945 39.532 L 147.545 39.532 L 147.545 43.532 L 147.045 43.532 C 147.045 41.832 146.145 40.032 143.645 40.032 L 143.045 40.032 L 143.045 50.932 L 144.645 50.932 L 144.645 51.432 L 138.845 51.432 L 138.845 50.932 Z" style="fill: rgb(35, 31, 32);"/>
  <path class="st0" d="M 150.445 46.932 L 150.445 47.632 C 150.445 49.132 150.745 50.932 152.645 50.932 C 154.045 50.932 154.945 50.132 155.445 48.932 L 155.845 49.132 C 155.145 50.832 153.845 51.632 152.145 51.632 C 149.545 51.632 147.845 49.932 147.845 47.332 C 147.845 44.832 149.645 43.032 152.145 43.032 C 154.345 43.032 156.045 44.432 156.045 46.932 L 150.445 46.932 Z M 153.445 46.432 L 153.445 45.632 C 153.445 44.732 153.245 43.532 152.045 43.532 C 150.545 43.532 150.445 45.332 150.445 46.432 L 153.445 46.432 Z" style="fill: rgb(35, 31, 32);"/>
  <path class="st0" d="M 156.645 50.932 L 157.845 50.932 L 160.345 47.832 L 157.845 43.732 L 156.545 43.732 L 156.545 43.232 L 161.745 43.232 L 161.745 43.732 L 160.645 43.732 L 161.945 45.832 L 163.645 43.732 L 162.545 43.732 L 162.545 43.232 L 165.445 43.232 L 165.445 43.732 L 164.345 43.732 L 162.245 46.332 L 165.145 50.832 L 166.245 50.832 L 166.245 51.332 L 161.045 51.332 L 161.045 50.832 L 162.245 50.832 L 160.645 48.232 L 158.645 50.832 L 159.945 50.832 L 159.945 51.332 L 156.745 51.332 L 156.745 50.932 L 156.645 50.932 Z" style="fill: rgb(35, 31, 32);"/>
  <path class="st0" d="M 174.345 49.532 C 174.345 50.632 174.545 50.932 175.545 50.932 L 175.545 51.432 C 174.945 51.432 174.345 51.532 173.645 51.532 C 172.645 51.532 172.145 51.332 171.945 50.332 C 171.545 51.332 170.345 51.632 169.245 51.632 C 167.545 51.632 166.745 50.632 166.745 49.032 C 166.745 47.032 168.245 46.832 170.345 46.432 C 170.745 46.332 171.545 46.132 172.045 45.932 L 172.045 44.932 C 172.045 44.132 171.745 43.632 170.545 43.632 C 168.245 43.632 170.145 45.832 168.245 45.832 C 167.745 45.832 167.345 45.632 167.345 44.932 C 167.345 43.532 169.345 43.132 170.545 43.132 C 172.745 43.132 174.445 43.332 174.445 45.632 L 174.445 49.532 L 174.345 49.532 Z M 171.945 46.432 L 170.545 46.932 C 169.645 47.232 169.145 47.732 169.145 49.232 C 169.145 50.032 169.445 50.832 170.345 50.832 C 171.945 50.832 171.945 48.832 171.945 47.832 L 171.945 46.432 Z" style="fill: rgb(35, 31, 32);"/>
  <path class="st0" d="M 176.445 48.332 L 176.945 48.332 C 177.045 49.832 177.945 51.132 179.445 51.132 C 180.245 51.132 181.145 50.832 181.145 49.932 C 181.145 48.032 176.545 48.832 176.545 45.632 C 176.545 43.932 177.845 43.032 179.445 43.032 C 180.645 43.032 181.345 43.332 182.045 43.532 L 182.045 45.632 L 181.545 45.632 C 181.445 44.432 180.545 43.432 179.345 43.432 C 178.645 43.432 178.145 43.732 178.145 44.432 C 178.145 46.132 182.745 45.332 182.745 48.632 C 182.745 50.432 181.045 51.432 179.445 51.432 C 178.145 51.432 177.145 51.032 176.545 50.832 L 176.545 48.332 L 176.445 48.332 Z" style="fill: rgb(35, 31, 32);"/>
  <path class="st3" d="M 30.445 36.432 L 38.345 37.232 C 39.845 37.432 40.045 38.832 39.645 39.732 L 34.245 49.932 C 31.445 47.732 29.745 44.432 29.745 40.632 C 29.745 39.132 30.045 37.732 30.445 36.432 Z" style="opacity: 1; fill: rgb(255, 255, 255);"/>
  <path class="st0" d="M 37.645 38.732 L 31.645 38.132 C 31.445 38.932 31.345 39.732 31.345 40.532 C 31.345 43.032 32.245 45.332 33.845 47.132 L 38.045 39.132 C 38.145 38.932 38.045 38.832 37.645 38.732 Z" style="opacity: 1; fill: rgb(0, 130, 200);"/>
  <path class="st3" d="M 52.545 36.432 L 44.645 37.232 C 43.145 37.432 42.945 38.832 43.345 39.732 L 48.745 49.932 C 51.445 47.732 53.245 44.432 53.245 40.632 C 53.345 39.132 53.045 37.732 52.545 36.432 Z" style="opacity: 1; fill: rgb(255, 255, 255);"/>
  <path class="st0" d="M 45.445 38.732 C 45.045 38.732 44.945 38.932 45.045 39.232 L 49.245 47.232 C 50.745 45.432 51.745 43.132 51.745 40.632 C 51.745 39.832 51.645 39.032 51.445 38.232 L 45.445 38.732 Z" style="opacity: 1; fill: rgb(0, 130, 200);"/>
</svg>